<svg width="193" height="112" viewBox="0 0 193 112" fill="none" xmlns="http://www.w3.org/2000/svg">
<rect x="1" y="0.5" width="191" height="111" rx="15.5" stroke="#252B37"/>
<rect x="9" y="8.5" width="175" height="95" rx="15.5" fill="#0A0D12"/>
<rect x="9" y="8.5" width="175" height="95" rx="15.5" stroke="#252B37"/>
<g clip-path="url(#clip0_25437_41)">
<path d="M100.047 46.05C100.047 47.4915 98.8858 48.6527 97.4444 48.6527C96.0029 48.6527 94.8418 47.4915 94.8418 46.05C94.8418 44.6086 95.9629 43.4474 97.4444 43.4474C98.9258 43.4875 100.047 44.6486 100.047 46.05ZM89.3162 51.2953C89.3162 51.5355 89.3162 51.9359 89.3162 51.9359C89.3162 51.9359 88.075 50.3343 85.4324 50.3343C81.068 50.3343 77.6646 53.6577 77.6646 58.2623C77.6646 62.8268 81.0279 66.1902 85.4324 66.1902C88.115 66.1902 89.3162 64.5485 89.3162 64.5485V65.2292C89.3162 65.5495 89.5565 65.7898 89.8768 65.7898H93.12V50.7347C93.12 50.7347 90.1571 50.7347 89.8768 50.7347C89.5565 50.7347 89.3162 51.015 89.3162 51.2953ZM89.3162 60.9449C88.7156 61.8258 87.5144 62.5866 86.073 62.5866C83.5104 62.5866 81.5485 60.985 81.5485 58.2623C81.5485 55.5395 83.5104 53.9379 86.073 53.9379C87.4744 53.9379 88.7557 54.7387 89.3162 55.5796V60.9449ZM95.5224 50.7347H99.3663V65.7898H95.5224V50.7347ZM152.94 50.3343C150.297 50.3343 149.056 51.9359 149.056 51.9359V43.4875H145.212V65.7898C145.212 65.7898 148.175 65.7898 148.455 65.7898C148.776 65.7898 149.016 65.5095 149.016 65.2292V64.5485C149.016 64.5485 150.257 66.1902 152.9 66.1902C157.264 66.1902 160.668 62.8268 160.668 58.2623C160.668 53.6977 157.264 50.3343 152.94 50.3343ZM152.299 62.5465C150.818 62.5465 149.657 61.7858 149.056 60.9049V55.5395C149.657 54.7387 150.938 53.8979 152.299 53.8979C154.862 53.8979 156.824 55.4995 156.824 58.2222C156.824 60.9449 154.862 62.5465 152.299 62.5465ZM143.21 56.8609V65.8298H139.366V57.3013C139.366 54.8188 138.565 53.8178 136.403 53.8178C135.242 53.8178 134.041 54.4184 133.28 55.2993V65.7898H129.436V50.7347H132.479C132.8 50.7347 133.04 51.015 133.04 51.2953V51.9359C134.161 50.7748 135.643 50.3343 137.124 50.3343C138.806 50.3343 140.207 50.8148 141.328 51.7758C142.69 52.8969 143.21 54.3383 143.21 56.8609ZM120.107 50.3343C117.464 50.3343 116.223 51.9359 116.223 51.9359V43.4875H112.379V65.7898C112.379 65.7898 115.342 65.7898 115.623 65.7898C115.943 65.7898 116.183 65.5095 116.183 65.2292V64.5485C116.183 64.5485 117.424 66.1902 120.067 66.1902C124.431 66.1902 127.835 62.8268 127.835 58.2623C127.875 53.6977 124.471 50.3343 120.107 50.3343ZM119.466 62.5465C117.985 62.5465 116.824 61.7858 116.223 60.9049V55.5395C116.824 54.7387 118.105 53.8979 119.466 53.8979C122.029 53.8979 123.991 55.4995 123.991 58.2222C123.991 60.9449 122.029 62.5465 119.466 62.5465ZM109.056 50.3343C110.217 50.3343 110.818 50.5345 110.818 50.5345V54.0981C110.818 54.0981 107.615 53.017 105.613 55.2993V65.8298H101.769V50.7347C101.769 50.7347 104.732 50.7347 105.012 50.7347C105.332 50.7347 105.572 51.015 105.572 51.2953V51.9359C106.293 51.0951 107.855 50.3343 109.056 50.3343ZM69.1361 64.4284C68.9359 63.9479 68.7357 63.4274 68.5355 62.987C68.2151 62.2663 67.8948 61.5856 67.6145 60.9449L67.5745 60.9049C64.8117 54.8989 61.8488 48.8128 58.7257 42.8068L58.6055 42.5666C58.2852 41.966 57.9649 41.3253 57.6446 40.6847C57.2442 39.964 56.8438 39.2032 56.2031 38.4825C54.9218 36.8809 53.08 36 51.118 36C49.116 36 47.3142 36.8809 45.9929 38.4024C45.3923 39.1231 44.9519 39.8839 44.5515 40.6046C44.2312 41.2452 43.9108 41.8859 43.5905 42.4865L43.4704 42.7267C40.3873 48.7327 37.3843 54.8188 34.6216 60.8248L34.5815 60.9049C34.3012 61.5455 33.9809 62.2262 33.6606 62.9469C33.4604 63.3874 33.2602 63.8679 33.06 64.3884C32.5395 65.8699 32.3793 67.2713 32.5795 68.7127C33.02 71.7157 35.022 74.2382 37.7847 75.3594C38.8258 75.7998 39.9068 76 41.028 76C41.3483 76 41.7487 75.96 42.069 75.9199C43.3903 75.7598 44.7517 75.3193 46.073 74.5586C47.7146 73.6376 49.2762 72.3163 51.038 70.3944C52.7997 72.3163 54.4013 73.6376 56.0029 74.5586C57.3243 75.3193 58.6856 75.7598 60.0069 75.9199C60.3272 75.96 60.7277 76 61.048 76C62.1691 76 63.2902 75.7998 64.2912 75.3594C67.094 74.2382 69.056 71.6757 69.4964 68.7127C69.8167 67.3113 69.6566 65.9099 69.1361 64.4284ZM51.078 66.5105C48.9158 63.7878 47.5144 61.2252 47.034 59.0631C46.8338 58.1421 46.7937 57.3413 46.9138 56.6206C46.9939 55.98 47.2342 55.4194 47.5545 54.9389C48.3152 53.8579 49.5965 53.1772 51.078 53.1772C52.5595 53.1772 53.8808 53.8178 54.6015 54.9389C54.9218 55.4194 55.1621 55.98 55.2422 56.6206C55.3623 57.3413 55.3222 58.1822 55.122 59.0631C54.6416 61.1852 53.2402 63.7477 51.078 66.5105ZM67.054 68.3924C66.7737 70.4745 65.3723 72.2763 63.4103 73.0771C62.4494 73.4775 61.4083 73.5976 60.3673 73.4775C59.3663 73.3574 58.3653 73.037 57.3243 72.4364C55.8828 71.6356 54.4414 70.3944 52.7597 68.5526C55.4023 65.3093 57.0039 62.3463 57.6045 59.7037C57.8848 58.4625 57.9249 57.3413 57.8047 56.3003C57.6446 55.2993 57.2842 54.3784 56.7236 53.5776C55.4824 51.7758 53.4003 50.7347 51.078 50.7347C48.7557 50.7347 46.6736 51.8158 45.4324 53.5776C44.8718 54.3784 44.5114 55.2993 44.3513 56.3003C44.1911 57.3413 44.2312 58.5025 44.5515 59.7037C45.1521 62.3463 46.7937 65.3493 49.3963 68.5926C47.7547 70.4344 46.2732 71.6757 44.8318 72.4765C43.7907 73.0771 42.7897 73.3974 41.7887 73.5175C40.7076 73.6376 39.6666 73.4775 38.7457 73.1171C36.7837 72.3163 35.3823 70.5145 35.102 68.4324C34.9819 67.4314 35.062 66.4304 35.4624 65.3093C35.5825 64.9089 35.7827 64.5085 35.9829 64.028C36.2632 63.3874 36.5835 62.7067 36.9038 62.026L36.9439 61.9459C39.7066 55.98 42.6696 49.8939 45.7527 43.968L45.8728 43.7277C46.1931 43.1271 46.5134 42.4865 46.8338 41.8859C47.1541 41.2452 47.5144 40.6446 47.9549 40.1241C48.7957 39.1632 49.9168 38.6426 51.1581 38.6426C52.3993 38.6426 53.5204 39.1632 54.3613 40.1241C54.8017 40.6446 55.1621 41.2452 55.4824 41.8859C55.8027 42.4865 56.123 43.1271 56.4434 43.7277L56.5635 43.968C59.6065 49.9339 62.5695 56.02 65.3323 61.986V62.026C65.6526 62.6667 65.9329 63.3874 66.2532 64.028C66.4534 64.5085 66.6536 64.9089 66.7737 65.3093C67.094 66.3503 67.2141 67.3514 67.054 68.3924Z" fill="#FF5A5F"/>
</g>
<defs>
<clipPath id="clip0_25437_41">
<rect width="128" height="48" fill="white" transform="translate(32.5 32)"/>
</clipPath>
</defs>
</svg>
