<svg width="129" height="48" viewBox="0 0 129 48" fill="none" xmlns="http://www.w3.org/2000/svg">
<g clip-path="url(#clip0_25437_517)">
<path d="M128.263 23.6238V19.0297C127.464 19.0657 125.067 19.4323 124.006 20.863V19.3461H119.533V34.6526H124.006V27.4199C124.645 24.0121 127.54 23.6526 128.275 23.6238H128.263ZM88.193 23.8036C87.713 23.3206 87.1642 22.9317 86.5697 22.6532C86.0802 22.3848 85.5422 22.247 84.9976 22.2506C84.5942 22.2461 84.1949 22.3419 83.8281 22.531C83.6611 22.6073 83.5194 22.7406 83.4231 22.9121C83.3269 23.0836 83.2808 23.2847 83.2913 23.4872C83.2869 23.6926 83.3418 23.894 83.4478 24.0612C83.5539 24.2285 83.7052 24.3525 83.8793 24.4147C84.5036 24.6747 85.1445 24.8814 85.7965 25.033C86.3275 25.1624 86.8488 25.3379 87.3558 25.5578C87.8657 25.7766 88.3439 26.0794 88.7745 26.4565C89.1948 26.8284 89.5428 27.2933 89.797 27.8225C90.0648 28.414 90.1966 29.0714 90.1805 29.7349C90.2085 30.5452 90.046 31.3494 89.7094 32.0664C89.3728 32.7834 88.8739 33.3878 88.2633 33.8186C87.6776 34.2457 87.0281 34.5502 86.3461 34.7173C85.6595 34.9026 84.956 34.9967 84.2499 34.9977C83.1311 34.9978 82.0196 34.7938 80.9587 34.3937C79.9515 34.0413 79.0305 33.431 78.2682 32.6107L80.4794 29.4977C81.0184 30.0515 81.6307 30.5075 82.2944 30.8493C82.8752 31.178 83.5167 31.3479 84.1668 31.3454C84.5462 31.341 84.9198 31.2402 85.2597 31.0506C85.4324 30.9603 85.5764 30.8127 85.6723 30.6276C85.7683 30.4426 85.8116 30.2289 85.7965 30.0153C85.7988 29.7877 85.7387 29.5647 85.6243 29.3769C85.51 29.1891 85.3469 29.0455 85.1574 28.9656C84.4909 28.6537 83.7998 28.4129 83.0932 28.2467C82.6046 28.1177 82.1242 27.9519 81.6553 27.7506C81.1934 27.5488 80.7622 27.2675 80.3772 26.9166C80.0093 26.5635 79.7056 26.1339 79.4825 25.6513C79.233 25.0741 79.1103 24.438 79.1246 23.7964C79.1036 22.9666 79.2849 22.1461 79.6486 21.4238C79.991 20.7738 80.461 20.2205 81.0226 19.8062C81.5806 19.3856 82.1989 19.0767 82.8504 18.8931C83.5055 18.7002 84.1798 18.6011 84.857 18.5983C85.8815 18.5972 86.8997 18.7792 87.8734 19.1376C88.803 19.4643 89.6565 20.0193 90.3722 20.7624L88.193 23.8036ZM114.376 25.0114C114.37 24.3068 114.144 23.627 113.737 23.0918C113.474 22.7893 113.155 22.5557 112.802 22.4078C112.45 22.2599 112.073 22.2014 111.698 22.2362C111.291 22.2324 110.886 22.3103 110.503 22.4663C110.155 22.6094 109.832 22.8212 109.551 23.0918C109.288 23.3561 109.071 23.673 108.912 24.0264C108.77 24.3331 108.681 24.6674 108.65 25.0114H114.376ZM118.498 27.0892V27.7003C118.508 27.8942 118.508 28.0887 118.498 28.2826H108.63C108.659 28.6935 108.775 29.0905 108.969 29.4402C109.162 29.7911 109.411 30.0984 109.704 30.346C110.01 30.6038 110.351 30.8052 110.714 30.9428C111.086 31.0865 111.477 31.1594 111.871 31.1585C112.495 31.1789 113.114 31.0258 113.673 30.7127C114.143 30.4357 114.552 30.0425 114.868 29.5624L117.98 31.7696C117.332 32.8101 116.449 33.6387 115.424 34.1709C114.292 34.7441 113.061 35.0266 111.819 34.9977C110.834 35.0041 109.855 34.8217 108.924 34.4584C108.046 34.1218 107.235 33.5914 106.541 32.8983C105.85 32.1971 105.303 31.3363 104.937 30.3748C104.528 29.2935 104.328 28.1272 104.349 26.9526C104.335 25.7924 104.529 24.641 104.917 23.5663C105.276 22.6015 105.804 21.7283 106.47 20.9996C107.141 20.2874 107.929 19.7304 108.79 19.3604C109.718 18.9629 110.705 18.7653 111.698 18.7781C112.64 18.7681 113.575 18.9609 114.452 19.3461C115.268 19.7082 116.004 20.2678 116.606 20.9853C117.225 21.7352 117.703 22.618 118.012 23.5807C118.362 24.703 118.532 25.8858 118.517 27.0748L118.498 27.0892ZM64.6049 23.4944V18.8715H60.7705V15.4421C60.6746 13.465 59.8439 11.9912 56.4504 11.9912V29.7996C56.4473 30.5132 56.529 31.2241 56.6932 31.9134C56.8381 32.5189 57.1 33.0811 57.4601 33.5598C57.8458 34.0366 58.3313 34.3974 58.8725 34.6094C59.6284 34.88 60.4183 35.0111 61.2115 34.9977C62.3669 35.0136 63.5158 34.7994 64.6049 34.365V30.267C63.878 30.4766 63.1314 30.5876 62.381 30.5977C62.1473 30.6302 61.9101 30.601 61.6883 30.5124C61.4664 30.4238 61.266 30.2782 61.1028 30.0872C60.8473 29.6204 60.7329 29.0731 60.7769 28.5271V23.4944H64.6049Z" fill="#008FB4"/>
<path d="M100.489 26.4854L105.537 19.2959H100.195L95.7213 25.6514V15.5861C95.6383 13.5155 94.8394 11.9913 91.3948 11.9913V34.6527H95.7213V27.3338L100.834 34.6527H106.234L100.489 26.4854ZM77.5079 34.6383V24.5011C77.5079 20.137 74.4275 18.5697 71.6987 18.5697C69.5501 18.4491 67.4363 19.2162 65.7554 20.7266L68.0113 23.8756C68.9197 22.978 70.0548 22.4225 71.2578 22.2867C72.9002 22.2867 73.2389 23.3436 73.2389 24.6952V24.954H71.7626C67.9665 24.954 65.6851 26.8017 65.6851 30.0945C65.6851 33.6893 68.497 34.6239 71.9224 34.6239L77.5079 34.6383ZM73.2389 31.4534H71.8201C70.7145 31.4534 70.0371 30.9357 70.0371 29.8645C70.0371 28.7932 70.7146 28.1749 72.0694 28.1749H73.2389V31.4534ZM40.6911 14.7736C40.6911 15.5173 40.9537 16.2305 41.4211 16.7563C41.8885 17.2821 42.5224 17.5776 43.1834 17.5776C43.8445 17.5776 44.4784 17.2821 44.9458 16.7563C45.4132 16.2305 45.6758 15.5173 45.6758 14.7736C45.6758 14.03 45.4132 13.3168 44.9458 12.791C44.4784 12.2651 43.8445 11.9697 43.1834 11.9697C42.5224 11.9697 41.8885 12.2651 41.4211 12.791C40.9537 13.3168 40.6911 14.03 40.6911 14.7736ZM41.1129 18.9076H40.9275V34.6527H45.433V22.222C45.3051 20.3096 44.436 18.9076 41.1129 18.9076ZM55.46 23.624V19.0298C54.6675 19.0658 52.2646 19.4325 51.2038 20.8632V19.3462H46.7303V34.6527H51.2038V27.5422C51.2007 27.5016 51.2007 27.4607 51.2038 27.42C51.8428 24.0122 54.7314 23.6527 55.4727 23.624H55.46ZM126.965 32.3449H126.716V32.8769H126.965C126.998 32.8788 127.03 32.8734 127.06 32.8609C127.09 32.8484 127.118 32.8291 127.141 32.8042C127.164 32.7793 127.183 32.7494 127.196 32.7161C127.208 32.6829 127.215 32.647 127.215 32.6109C127.215 32.5747 127.208 32.5389 127.196 32.5056C127.183 32.4724 127.164 32.4424 127.141 32.4175C127.118 32.3926 127.09 32.3733 127.06 32.3608C127.03 32.3483 126.998 32.3429 126.965 32.3449ZM127.215 33.8187L126.908 33.0998H126.716V33.8187H126.435V32.0717H127.036C127.099 32.0697 127.163 32.0823 127.222 32.1086C127.281 32.1349 127.335 32.1744 127.381 32.2248C127.426 32.2752 127.462 32.3353 127.486 32.4017C127.51 32.468 127.522 32.5392 127.521 32.6109C127.522 32.7155 127.494 32.8177 127.44 32.9029C127.386 32.9882 127.309 33.052 127.221 33.0854L127.56 33.8043L127.215 33.8187ZM126.921 31.6619C126.687 31.6489 126.456 31.715 126.256 31.8514C126.056 31.9879 125.898 32.1886 125.8 32.4276C125.703 32.6666 125.671 32.9329 125.71 33.1922C125.748 33.4516 125.855 33.692 126.016 33.8825C126.177 34.0731 126.385 34.2049 126.613 34.2612C126.841 34.3174 127.079 34.2954 127.296 34.198C127.513 34.1006 127.7 33.9323 127.831 33.7148C127.962 33.4972 128.032 33.2404 128.033 32.9775C128.037 32.8089 128.011 32.6409 127.958 32.4834C127.904 32.3258 127.823 32.1817 127.72 32.0595C127.617 31.9372 127.493 31.8391 127.356 31.7709C127.218 31.7026 127.071 31.6656 126.921 31.6619ZM126.921 34.5952C126.636 34.6051 126.354 34.5195 126.113 34.3491C125.871 34.1788 125.68 33.9315 125.564 33.6386C125.447 33.3458 125.411 33.0206 125.459 32.7044C125.507 32.3882 125.638 32.0953 125.835 31.8629C126.031 31.6306 126.285 31.4692 126.563 31.3994C126.842 31.3296 127.132 31.3545 127.398 31.4709C127.664 31.5873 127.893 31.7899 128.056 32.0531C128.219 32.3162 128.309 32.628 128.314 32.9488C128.319 33.3709 128.175 33.7781 127.914 34.0812C127.653 34.3844 127.296 34.5589 126.921 34.5664V34.5952ZM28.3506 25.7736L30.3509 19.303L32.3512 25.7736H28.3506ZM32.4535 11.9913H28.4337L22.2284 30.4396H19.7871C18.1228 30.5189 16.4736 30.0545 15.0388 29.1024C14.467 28.6896 14.0029 28.1132 13.6941 27.4323C13.3853 26.7514 13.2429 25.9904 13.2814 25.2272V23.0704H11.3003C9.4575 23.0135 7.69282 22.2209 6.32192 20.8344C5.25088 19.5706 4.57745 17.9468 4.40471 16.2115H18.2917C20.816 16.2115 21.7491 17.5991 22.3306 18.8429C22.6163 19.4668 22.831 20.1286 22.9697 20.8128L24.7271 15.5861C24.7271 15.5861 23.2573 11.9913 18.2917 11.9913H0.5V14.1482C0.5 18.2174 1.57364 21.4815 3.69535 23.8253C5.36084 25.5984 7.46782 26.7572 9.73455 27.1468C10.5334 31.7625 14.3039 34.6383 19.7871 34.6383H25.4876L26.7657 30.4828H33.9042L35.1823 34.6311H40.0584L32.4535 11.9913Z" fill="#008FB4"/>
</g>
<defs>
<clipPath id="clip0_25437_517">
<rect width="128" height="48" fill="white" transform="translate(0.5)"/>
</clipPath>
</defs>
</svg>
