<svg width="97" height="30" viewBox="0 0 97 30" fill="none" xmlns="http://www.w3.org/2000/svg">
<mask id="mask0_8411_143671" style="mask-type:luminance" maskUnits="userSpaceOnUse" x="0" y="12" width="10" height="18">
<path d="M9.19727 12.5552H0.533212V29.3333H9.19727V12.5552Z" fill="white"/>
</mask>
<g mask="url(#mask0_8411_143671)">
<path d="M9 21.2391L8.96574 25.2858L8.93049 29.3335C6.04839 27.2306 3.41495 25.2899 0.532847 23.187C0.532847 19.5692 0.817702 15.823 1.38355 12.3335L9 21.2391Z" fill="#855400"/>
</g>
<g clip-path="url(#clip0_8411_143671)">
<path d="M97 10.8335C97 5.03451 92.299 0.333496 86.5 0.333496H0V21.3335H86.5C92.299 21.3335 97 16.6325 97 10.8335Z" fill="#F3B64C"/>
<path d="M7.128 15.3335V6.9335H11.064C12.072 6.9335 12.84 7.1335 13.368 7.5335C13.896 7.9255 14.16 8.4535 14.16 9.1175C14.16 9.5655 14.056 9.9495 13.848 10.2695C13.64 10.5815 13.36 10.8255 13.008 11.0015C12.664 11.1695 12.288 11.2535 11.88 11.2535L12.096 10.8215C12.568 10.8215 12.992 10.9095 13.368 11.0855C13.744 11.2535 14.04 11.5015 14.256 11.8295C14.48 12.1575 14.592 12.5655 14.592 13.0535C14.592 13.7735 14.316 14.3335 13.764 14.7335C13.212 15.1335 12.392 15.3335 11.304 15.3335H7.128ZM8.688 14.1095H11.208C11.792 14.1095 12.24 14.0135 12.552 13.8215C12.864 13.6295 13.02 13.3215 13.02 12.8975C13.02 12.4815 12.864 12.1775 12.552 11.9855C12.24 11.7855 11.792 11.6855 11.208 11.6855H8.568V10.4735H10.896C11.44 10.4735 11.856 10.3775 12.144 10.1855C12.44 9.9935 12.588 9.7055 12.588 9.3215C12.588 8.9295 12.44 8.6375 12.144 8.4455C11.856 8.2535 11.44 8.1575 10.896 8.1575H8.688V14.1095ZM18.7649 15.4175C18.0529 15.4175 17.4289 15.2775 16.8929 14.9975C16.3649 14.7095 15.9529 14.3175 15.6569 13.8215C15.3689 13.3255 15.2249 12.7615 15.2249 12.1295C15.2249 11.4895 15.3649 10.9255 15.6449 10.4375C15.9329 9.9415 16.3249 9.5535 16.8209 9.2735C17.3249 8.9935 17.8969 8.8535 18.5369 8.8535C19.1609 8.8535 19.7169 8.9895 20.2049 9.2615C20.6929 9.5335 21.0769 9.9175 21.3569 10.4135C21.6369 10.9095 21.7769 11.4935 21.7769 12.1655C21.7769 12.2295 21.7729 12.3015 21.7649 12.3815C21.7649 12.4615 21.7609 12.5375 21.7529 12.6095H16.4129V11.6135H20.9609L20.3729 11.9255C20.3809 11.5575 20.3049 11.2335 20.1449 10.9535C19.9849 10.6735 19.7649 10.4535 19.4849 10.2935C19.2129 10.1335 18.8969 10.0535 18.5369 10.0535C18.1689 10.0535 17.8449 10.1335 17.5649 10.2935C17.2929 10.4535 17.0769 10.6775 16.9169 10.9655C16.7649 11.2455 16.6889 11.5775 16.6889 11.9615V12.2015C16.6889 12.5855 16.7769 12.9255 16.9529 13.2215C17.1289 13.5175 17.3769 13.7455 17.6969 13.9055C18.0169 14.0655 18.3849 14.1455 18.8009 14.1455C19.1609 14.1455 19.4849 14.0895 19.7729 13.9775C20.0609 13.8655 20.3169 13.6895 20.5409 13.4495L21.3449 14.3735C21.0569 14.7095 20.6929 14.9695 20.2529 15.1535C19.8209 15.3295 19.3249 15.4175 18.7649 15.4175ZM24.8377 15.4175C24.3017 15.4175 23.7857 15.3495 23.2897 15.2135C22.8017 15.0695 22.4137 14.8975 22.1257 14.6975L22.7017 13.5575C22.9897 13.7415 23.3337 13.8935 23.7337 14.0135C24.1337 14.1335 24.5337 14.1935 24.9338 14.1935C25.4057 14.1935 25.7457 14.1295 25.9537 14.0015C26.1697 13.8735 26.2777 13.7015 26.2777 13.4855C26.2777 13.3095 26.2057 13.1775 26.0617 13.0895C25.9178 12.9935 25.7298 12.9215 25.4977 12.8735C25.2657 12.8255 25.0057 12.7815 24.7177 12.7415C24.4377 12.7015 24.1537 12.6495 23.8657 12.5855C23.5857 12.5135 23.3297 12.4135 23.0977 12.2855C22.8657 12.1495 22.6777 11.9695 22.5337 11.7455C22.3897 11.5215 22.3177 11.2255 22.3177 10.8575C22.3177 10.4495 22.4337 10.0975 22.6657 9.8015C22.8977 9.4975 23.2217 9.2655 23.6377 9.1055C24.0617 8.9375 24.5617 8.8535 25.1377 8.8535C25.5697 8.8535 26.0057 8.9015 26.4457 8.9975C26.8857 9.0935 27.2498 9.2295 27.5378 9.4055L26.9618 10.5455C26.6577 10.3615 26.3497 10.2375 26.0377 10.1735C25.7337 10.1015 25.4297 10.0655 25.1258 10.0655C24.6697 10.0655 24.3297 10.1335 24.1057 10.2695C23.8897 10.4055 23.7817 10.5775 23.7817 10.7855C23.7817 10.9775 23.8537 11.1215 23.9977 11.2175C24.1417 11.3135 24.3297 11.3895 24.5617 11.4455C24.7937 11.5015 25.0497 11.5495 25.3297 11.5895C25.6177 11.6215 25.9017 11.6735 26.1818 11.7455C26.4618 11.8175 26.7177 11.9175 26.9497 12.0455C27.1897 12.1655 27.3817 12.3375 27.5257 12.5615C27.6697 12.7855 27.7418 13.0775 27.7418 13.4375C27.7418 13.8375 27.6217 14.1855 27.3817 14.4815C27.1497 14.7775 26.8177 15.0095 26.3857 15.1775C25.9538 15.3375 25.4377 15.4175 24.8377 15.4175ZM31.0855 15.4175C30.3815 15.4175 29.8375 15.2375 29.4535 14.8775C29.0695 14.5095 28.8775 13.9695 28.8775 13.2575V7.5095H30.3775V13.2215C30.3775 13.5255 30.4535 13.7615 30.6055 13.9295C30.7655 14.0975 30.9855 14.1815 31.2655 14.1815C31.6015 14.1815 31.8815 14.0935 32.1055 13.9175L32.5255 14.9855C32.3495 15.1295 32.1335 15.2375 31.8775 15.3095C31.6215 15.3815 31.3575 15.4175 31.0855 15.4175ZM27.8215 10.1735V8.9735H32.0935V10.1735H27.8215ZM36.4999 15.3335V6.9335H39.9559C40.6999 6.9335 41.3359 7.0535 41.8639 7.2935C42.3999 7.5335 42.8119 7.8775 43.0999 8.3255C43.3879 8.7735 43.5319 9.3055 43.5319 9.9215C43.5319 10.5375 43.3879 11.0695 43.0999 11.5175C42.8119 11.9655 42.3999 12.3095 41.8639 12.5495C41.3359 12.7895 40.6999 12.9095 39.9559 12.9095H37.3639L38.0599 12.1775V15.3335H36.4999ZM38.0599 12.3455L37.3639 11.5895H39.8839C40.5719 11.5895 41.0879 11.4455 41.4319 11.1575C41.7839 10.8615 41.9599 10.4495 41.9599 9.9215C41.9599 9.3855 41.7839 8.9735 41.4319 8.6855C41.0879 8.3975 40.5719 8.2535 39.8839 8.2535H37.3639L38.0599 7.4855V12.3455ZM47.4423 15.4175C46.7863 15.4175 46.2023 15.2775 45.6903 14.9975C45.1783 14.7095 44.7743 14.3175 44.4783 13.8215C44.1823 13.3255 44.0343 12.7615 44.0343 12.1295C44.0343 11.4895 44.1823 10.9255 44.4783 10.4375C44.7743 9.9415 45.1783 9.5535 45.6903 9.2735C46.2023 8.9935 46.7863 8.8535 47.4423 8.8535C48.1063 8.8535 48.6943 8.9935 49.2063 9.2735C49.7263 9.5535 50.1303 9.9375 50.4183 10.4255C50.7143 10.9135 50.8623 11.4815 50.8623 12.1295C50.8623 12.7615 50.7143 13.3255 50.4183 13.8215C50.1303 14.3175 49.7263 14.7095 49.2063 14.9975C48.6943 15.2775 48.1063 15.4175 47.4423 15.4175ZM47.4423 14.1335C47.8103 14.1335 48.1383 14.0535 48.4263 13.8935C48.7143 13.7335 48.9383 13.5015 49.0983 13.1975C49.2663 12.8935 49.3503 12.5375 49.3503 12.1295C49.3503 11.7135 49.2663 11.3575 49.0983 11.0615C48.9383 10.7575 48.7143 10.5255 48.4263 10.3655C48.1383 10.2055 47.8143 10.1255 47.4543 10.1255C47.0863 10.1255 46.7583 10.2055 46.4703 10.3655C46.1903 10.5255 45.9663 10.7575 45.7983 11.0615C45.6303 11.3575 45.5463 11.7135 45.5463 12.1295C45.5463 12.5375 45.6303 12.8935 45.7983 13.1975C45.9663 13.5015 46.1903 13.7335 46.4703 13.8935C46.7583 14.0535 47.0823 14.1335 47.4423 14.1335ZM51.9367 15.3335V8.9255H53.3647V10.6895L53.1967 10.1735C53.3887 9.7415 53.6887 9.4135 54.0967 9.1895C54.5127 8.9655 55.0287 8.8535 55.6447 8.8535V10.2815C55.5807 10.2655 55.5207 10.2575 55.4647 10.2575C55.4087 10.2495 55.3527 10.2455 55.2967 10.2455C54.7287 10.2455 54.2767 10.4135 53.9407 10.7495C53.6047 11.0775 53.4367 11.5695 53.4367 12.2255V15.3335H51.9367ZM59.2035 15.4175C58.4995 15.4175 57.9555 15.2375 57.5715 14.8775C57.1875 14.5095 56.9955 13.9695 56.9955 13.2575V7.5095H58.4955V13.2215C58.4955 13.5255 58.5715 13.7615 58.7235 13.9295C58.8835 14.0975 59.1035 14.1815 59.3835 14.1815C59.7195 14.1815 59.9995 14.0935 60.2235 13.9175L60.6435 14.9855C60.4675 15.1295 60.2515 15.2375 59.9955 15.3095C59.7395 15.3815 59.4755 15.4175 59.2035 15.4175ZM55.9395 10.1735V8.9735H60.2115V10.1735H55.9395ZM61.7214 15.3335V8.5655C61.7214 7.8935 61.9174 7.3575 62.3094 6.9575C62.7094 6.5495 63.2774 6.3455 64.0134 6.3455C64.2774 6.3455 64.5254 6.3735 64.7574 6.4295C64.9974 6.4855 65.1974 6.5735 65.3574 6.6935L64.9494 7.8215C64.8374 7.7335 64.7094 7.6695 64.5654 7.6295C64.4214 7.5815 64.2734 7.5575 64.1214 7.5575C63.8094 7.5575 63.5734 7.6455 63.4134 7.8215C63.2534 7.9895 63.1734 8.2455 63.1734 8.5895V9.3095L63.2214 9.9815V15.3335H61.7214ZM60.6654 10.1735V8.9735H64.9374V10.1735H60.6654ZM68.3734 15.4175C67.7174 15.4175 67.1334 15.2775 66.6214 14.9975C66.1094 14.7095 65.7054 14.3175 65.4094 13.8215C65.1134 13.3255 64.9654 12.7615 64.9654 12.1295C64.9654 11.4895 65.1134 10.9255 65.4094 10.4375C65.7054 9.9415 66.1094 9.5535 66.6214 9.2735C67.1334 8.9935 67.7174 8.8535 68.3734 8.8535C69.0374 8.8535 69.6254 8.9935 70.1374 9.2735C70.6574 9.5535 71.0614 9.9375 71.3494 10.4255C71.6454 10.9135 71.7934 11.4815 71.7934 12.1295C71.7934 12.7615 71.6454 13.3255 71.3494 13.8215C71.0614 14.3175 70.6574 14.7095 70.1374 14.9975C69.6254 15.2775 69.0374 15.4175 68.3734 15.4175ZM68.3734 14.1335C68.7414 14.1335 69.0694 14.0535 69.3574 13.8935C69.6454 13.7335 69.8694 13.5015 70.0294 13.1975C70.1974 12.8935 70.2814 12.5375 70.2814 12.1295C70.2814 11.7135 70.1974 11.3575 70.0294 11.0615C69.8694 10.7575 69.6454 10.5255 69.3574 10.3655C69.0694 10.2055 68.7454 10.1255 68.3854 10.1255C68.0174 10.1255 67.6894 10.2055 67.4014 10.3655C67.1214 10.5255 66.8974 10.7575 66.7294 11.0615C66.5614 11.3575 66.4774 11.7135 66.4774 12.1295C66.4774 12.5375 66.5614 12.8935 66.7294 13.1975C66.8974 13.5015 67.1214 13.7335 67.4014 13.8935C67.6894 14.0535 68.0134 14.1335 68.3734 14.1335ZM72.8678 15.3335V6.4295H74.3678V15.3335H72.8678ZM75.9765 15.3335V8.9255H77.4765V15.3335H75.9765ZM76.7325 7.8695C76.4525 7.8695 76.2205 7.7815 76.0365 7.6055C75.8605 7.4295 75.7725 7.2175 75.7725 6.9695C75.7725 6.7135 75.8605 6.5015 76.0365 6.3335C76.2205 6.1575 76.4525 6.0695 76.7325 6.0695C77.0125 6.0695 77.2405 6.1535 77.4165 6.3215C77.6005 6.4815 77.6925 6.6855 77.6925 6.9335C77.6925 7.1975 77.6045 7.4215 77.4285 7.6055C77.2525 7.7815 77.0205 7.8695 76.7325 7.8695ZM81.9653 15.4175C81.3092 15.4175 80.7252 15.2775 80.2132 14.9975C79.7012 14.7095 79.2972 14.3175 79.0012 13.8215C78.7052 13.3255 78.5572 12.7615 78.5572 12.1295C78.5572 11.4895 78.7052 10.9255 79.0012 10.4375C79.2972 9.9415 79.7012 9.5535 80.2132 9.2735C80.7252 8.9935 81.3092 8.8535 81.9653 8.8535C82.6293 8.8535 83.2172 8.9935 83.7292 9.2735C84.2493 9.5535 84.6533 9.9375 84.9413 10.4255C85.2373 10.9135 85.3853 11.4815 85.3853 12.1295C85.3853 12.7615 85.2373 13.3255 84.9413 13.8215C84.6533 14.3175 84.2493 14.7095 83.7292 14.9975C83.2172 15.2775 82.6293 15.4175 81.9653 15.4175ZM81.9653 14.1335C82.3333 14.1335 82.6612 14.0535 82.9492 13.8935C83.2372 13.7335 83.4612 13.5015 83.6212 13.1975C83.7893 12.8935 83.8733 12.5375 83.8733 12.1295C83.8733 11.7135 83.7893 11.3575 83.6212 11.0615C83.4612 10.7575 83.2372 10.5255 82.9492 10.3655C82.6612 10.2055 82.3372 10.1255 81.9772 10.1255C81.6092 10.1255 81.2812 10.2055 80.9932 10.3655C80.7132 10.5255 80.4892 10.7575 80.3212 11.0615C80.1532 11.3575 80.0692 11.7135 80.0692 12.1295C80.0692 12.5375 80.1532 12.8935 80.3212 13.1975C80.4892 13.5015 80.7132 13.7335 80.9932 13.8935C81.2812 14.0535 81.6052 14.1335 81.9653 14.1335Z" fill="#0A0D12"/>
</g>
<defs>
<clipPath id="clip0_8411_143671">
<path d="M97 10.8335C97 5.03451 92.299 0.333496 86.5 0.333496H0V21.3335H86.5C92.299 21.3335 97 16.6325 97 10.8335Z" fill="white"/>
</clipPath>
</defs>
</svg>
