<svg width="98" height="30" viewBox="0 0 98 30" fill="none" xmlns="http://www.w3.org/2000/svg">
<mask id="mask0_25606_120" style="mask-type:luminance" maskUnits="userSpaceOnUse" x="1" y="12" width="9" height="18">
<path d="M9.86328 12.5552H1.19923V29.3333H9.86328V12.5552Z" fill="white"/>
</mask>
<g mask="url(#mask0_25606_120)">
<path d="M9.66602 21.2391L9.63175 25.2858L9.59651 29.3335C6.7144 27.2306 4.08097 25.2899 1.19886 23.187C1.19886 19.5692 1.48372 15.823 2.04957 12.3335L9.66602 21.2391Z" fill="#855400"/>
</g>
<g clip-path="url(#clip0_25606_120)">
<path d="M97.666 10.8335C97.666 5.03451 92.965 0.333496 87.166 0.333496H0.666016V21.3335H87.166C92.965 21.3335 97.666 16.6325 97.666 10.8335Z" fill="#F3B64C"/>
<path d="M7.79402 15.3335V6.9335H11.73C12.738 6.9335 13.506 7.1335 14.034 7.5335C14.562 7.9255 14.826 8.4535 14.826 9.1175C14.826 9.5655 14.722 9.9495 14.514 10.2695C14.306 10.5815 14.026 10.8255 13.674 11.0015C13.33 11.1695 12.954 11.2535 12.546 11.2535L12.762 10.8215C13.234 10.8215 13.658 10.9095 14.034 11.0855C14.41 11.2535 14.706 11.5015 14.922 11.8295C15.146 12.1575 15.258 12.5655 15.258 13.0535C15.258 13.7735 14.982 14.3335 14.43 14.7335C13.878 15.1335 13.058 15.3335 11.97 15.3335H7.79402ZM9.35402 14.1095H11.874C12.458 14.1095 12.906 14.0135 13.218 13.8215C13.53 13.6295 13.686 13.3215 13.686 12.8975C13.686 12.4815 13.53 12.1775 13.218 11.9855C12.906 11.7855 12.458 11.6855 11.874 11.6855H9.23402V10.4735H11.562C12.106 10.4735 12.522 10.3775 12.81 10.1855C13.106 9.9935 13.254 9.7055 13.254 9.3215C13.254 8.9295 13.106 8.6375 12.81 8.4455C12.522 8.2535 12.106 8.1575 11.562 8.1575H9.35402V14.1095ZM19.4309 15.4175C18.7189 15.4175 18.0949 15.2775 17.5589 14.9975C17.0309 14.7095 16.6189 14.3175 16.3229 13.8215C16.0349 13.3255 15.8909 12.7615 15.8909 12.1295C15.8909 11.4895 16.0309 10.9255 16.3109 10.4375C16.5989 9.9415 16.9909 9.5535 17.4869 9.2735C17.9909 8.9935 18.5629 8.8535 19.2029 8.8535C19.8269 8.8535 20.3829 8.9895 20.8709 9.2615C21.3589 9.5335 21.7429 9.9175 22.0229 10.4135C22.3029 10.9095 22.4429 11.4935 22.4429 12.1655C22.4429 12.2295 22.4389 12.3015 22.4309 12.3815C22.4309 12.4615 22.4269 12.5375 22.4189 12.6095H17.0789V11.6135H21.6269L21.0389 11.9255C21.0469 11.5575 20.9709 11.2335 20.8109 10.9535C20.6509 10.6735 20.4309 10.4535 20.1509 10.2935C19.8789 10.1335 19.5629 10.0535 19.2029 10.0535C18.8349 10.0535 18.5109 10.1335 18.2309 10.2935C17.9589 10.4535 17.7429 10.6775 17.5829 10.9655C17.4309 11.2455 17.3549 11.5775 17.3549 11.9615V12.2015C17.3549 12.5855 17.4429 12.9255 17.6189 13.2215C17.7949 13.5175 18.0429 13.7455 18.3629 13.9055C18.6829 14.0655 19.0509 14.1455 19.4669 14.1455C19.8269 14.1455 20.1509 14.0895 20.4389 13.9775C20.7269 13.8655 20.9829 13.6895 21.2069 13.4495L22.0109 14.3735C21.7229 14.7095 21.3589 14.9695 20.9189 15.1535C20.4869 15.3295 19.9909 15.4175 19.4309 15.4175ZM25.5038 15.4175C24.9678 15.4175 24.4518 15.3495 23.9558 15.2135C23.4678 15.0695 23.0798 14.8975 22.7918 14.6975L23.3678 13.5575C23.6558 13.7415 23.9998 13.8935 24.3998 14.0135C24.7998 14.1335 25.1998 14.1935 25.5998 14.1935C26.0718 14.1935 26.4118 14.1295 26.6198 14.0015C26.8358 13.8735 26.9438 13.7015 26.9438 13.4855C26.9438 13.3095 26.8718 13.1775 26.7278 13.0895C26.5838 12.9935 26.3958 12.9215 26.1638 12.8735C25.9318 12.8255 25.6718 12.7815 25.3838 12.7415C25.1038 12.7015 24.8198 12.6495 24.5318 12.5855C24.2518 12.5135 23.9958 12.4135 23.7638 12.2855C23.5318 12.1495 23.3438 11.9695 23.1998 11.7455C23.0558 11.5215 22.9838 11.2255 22.9838 10.8575C22.9838 10.4495 23.0998 10.0975 23.3318 9.8015C23.5638 9.4975 23.8878 9.2655 24.3038 9.1055C24.7278 8.9375 25.2278 8.8535 25.8038 8.8535C26.2358 8.8535 26.6718 8.9015 27.1118 8.9975C27.5518 9.0935 27.9158 9.2295 28.2038 9.4055L27.6278 10.5455C27.3238 10.3615 27.0158 10.2375 26.7038 10.1735C26.3998 10.1015 26.0958 10.0655 25.7918 10.0655C25.3358 10.0655 24.9958 10.1335 24.7718 10.2695C24.5558 10.4055 24.4478 10.5775 24.4478 10.7855C24.4478 10.9775 24.5198 11.1215 24.6638 11.2175C24.8078 11.3135 24.9958 11.3895 25.2278 11.4455C25.4598 11.5015 25.7158 11.5495 25.9958 11.5895C26.2838 11.6215 26.5678 11.6735 26.8478 11.7455C27.1278 11.8175 27.3838 11.9175 27.6158 12.0455C27.8558 12.1655 28.0478 12.3375 28.1918 12.5615C28.3358 12.7855 28.4078 13.0775 28.4078 13.4375C28.4078 13.8375 28.2878 14.1855 28.0478 14.4815C27.8158 14.7775 27.4838 15.0095 27.0518 15.1775C26.6198 15.3375 26.1038 15.4175 25.5038 15.4175ZM31.7515 15.4175C31.0475 15.4175 30.5035 15.2375 30.1195 14.8775C29.7355 14.5095 29.5435 13.9695 29.5435 13.2575V7.5095H31.0435V13.2215C31.0435 13.5255 31.1195 13.7615 31.2715 13.9295C31.4315 14.0975 31.6515 14.1815 31.9315 14.1815C32.2675 14.1815 32.5475 14.0935 32.7715 13.9175L33.1915 14.9855C33.0155 15.1295 32.7995 15.2375 32.5435 15.3095C32.2875 15.3815 32.0235 15.4175 31.7515 15.4175ZM28.4875 10.1735V8.9735H32.7595V10.1735H28.4875ZM37.1659 15.3335V6.9335H40.6219C41.3659 6.9335 42.0019 7.0535 42.5299 7.2935C43.0659 7.5335 43.4779 7.8775 43.7659 8.3255C44.0539 8.7735 44.1979 9.3055 44.1979 9.9215C44.1979 10.5375 44.0539 11.0695 43.7659 11.5175C43.4779 11.9655 43.0659 12.3095 42.5299 12.5495C42.0019 12.7895 41.3659 12.9095 40.6219 12.9095H38.0299L38.7259 12.1775V15.3335H37.1659ZM38.7259 12.3455L38.0299 11.5895H40.5499C41.2379 11.5895 41.7539 11.4455 42.0979 11.1575C42.4499 10.8615 42.6259 10.4495 42.6259 9.9215C42.6259 9.3855 42.4499 8.9735 42.0979 8.6855C41.7539 8.3975 41.2379 8.2535 40.5499 8.2535H38.0299L38.7259 7.4855V12.3455ZM48.1083 15.4175C47.4523 15.4175 46.8683 15.2775 46.3563 14.9975C45.8443 14.7095 45.4403 14.3175 45.1443 13.8215C44.8483 13.3255 44.7003 12.7615 44.7003 12.1295C44.7003 11.4895 44.8483 10.9255 45.1443 10.4375C45.4403 9.9415 45.8443 9.5535 46.3563 9.2735C46.8683 8.9935 47.4523 8.8535 48.1083 8.8535C48.7723 8.8535 49.3603 8.9935 49.8723 9.2735C50.3923 9.5535 50.7963 9.9375 51.0843 10.4255C51.3803 10.9135 51.5283 11.4815 51.5283 12.1295C51.5283 12.7615 51.3803 13.3255 51.0843 13.8215C50.7963 14.3175 50.3923 14.7095 49.8723 14.9975C49.3603 15.2775 48.7723 15.4175 48.1083 15.4175ZM48.1083 14.1335C48.4763 14.1335 48.8043 14.0535 49.0923 13.8935C49.3803 13.7335 49.6043 13.5015 49.7643 13.1975C49.9323 12.8935 50.0163 12.5375 50.0163 12.1295C50.0163 11.7135 49.9323 11.3575 49.7643 11.0615C49.6043 10.7575 49.3803 10.5255 49.0923 10.3655C48.8043 10.2055 48.4803 10.1255 48.1203 10.1255C47.7523 10.1255 47.4243 10.2055 47.1363 10.3655C46.8563 10.5255 46.6323 10.7575 46.4643 11.0615C46.2963 11.3575 46.2123 11.7135 46.2123 12.1295C46.2123 12.5375 46.2963 12.8935 46.4643 13.1975C46.6323 13.5015 46.8563 13.7335 47.1363 13.8935C47.4243 14.0535 47.7483 14.1335 48.1083 14.1335ZM52.6027 15.3335V8.9255H54.0307V10.6895L53.8627 10.1735C54.0547 9.7415 54.3547 9.4135 54.7627 9.1895C55.1787 8.9655 55.6947 8.8535 56.3107 8.8535V10.2815C56.2467 10.2655 56.1867 10.2575 56.1307 10.2575C56.0747 10.2495 56.0187 10.2455 55.9627 10.2455C55.3947 10.2455 54.9427 10.4135 54.6067 10.7495C54.2707 11.0775 54.1027 11.5695 54.1027 12.2255V15.3335H52.6027ZM59.8695 15.4175C59.1655 15.4175 58.6215 15.2375 58.2375 14.8775C57.8535 14.5095 57.6615 13.9695 57.6615 13.2575V7.5095H59.1615V13.2215C59.1615 13.5255 59.2375 13.7615 59.3895 13.9295C59.5495 14.0975 59.7695 14.1815 60.0495 14.1815C60.3855 14.1815 60.6655 14.0935 60.8895 13.9175L61.3095 14.9855C61.1335 15.1295 60.9175 15.2375 60.6615 15.3095C60.4055 15.3815 60.1415 15.4175 59.8695 15.4175ZM56.6055 10.1735V8.9735H60.8775V10.1735H56.6055ZM62.3875 15.3335V8.5655C62.3875 7.8935 62.5835 7.3575 62.9755 6.9575C63.3755 6.5495 63.9435 6.3455 64.6795 6.3455C64.9435 6.3455 65.1915 6.3735 65.4235 6.4295C65.6635 6.4855 65.8635 6.5735 66.0235 6.6935L65.6155 7.8215C65.5035 7.7335 65.3755 7.6695 65.2315 7.6295C65.0875 7.5815 64.9395 7.5575 64.7875 7.5575C64.4755 7.5575 64.2395 7.6455 64.0795 7.8215C63.9195 7.9895 63.8395 8.2455 63.8395 8.5895V9.3095L63.8875 9.9815V15.3335H62.3875ZM61.3315 10.1735V8.9735H65.6035V10.1735H61.3315ZM69.0394 15.4175C68.3834 15.4175 67.7994 15.2775 67.2874 14.9975C66.7754 14.7095 66.3714 14.3175 66.0754 13.8215C65.7794 13.3255 65.6314 12.7615 65.6314 12.1295C65.6314 11.4895 65.7794 10.9255 66.0754 10.4375C66.3714 9.9415 66.7754 9.5535 67.2874 9.2735C67.7994 8.9935 68.3834 8.8535 69.0394 8.8535C69.7034 8.8535 70.2914 8.9935 70.8034 9.2735C71.3234 9.5535 71.7274 9.9375 72.0154 10.4255C72.3114 10.9135 72.4594 11.4815 72.4594 12.1295C72.4594 12.7615 72.3114 13.3255 72.0154 13.8215C71.7274 14.3175 71.3234 14.7095 70.8034 14.9975C70.2914 15.2775 69.7034 15.4175 69.0394 15.4175ZM69.0394 14.1335C69.4074 14.1335 69.7354 14.0535 70.0234 13.8935C70.3114 13.7335 70.5354 13.5015 70.6954 13.1975C70.8634 12.8935 70.9474 12.5375 70.9474 12.1295C70.9474 11.7135 70.8634 11.3575 70.6954 11.0615C70.5354 10.7575 70.3114 10.5255 70.0234 10.3655C69.7354 10.2055 69.4114 10.1255 69.0514 10.1255C68.6834 10.1255 68.3554 10.2055 68.0674 10.3655C67.7874 10.5255 67.5634 10.7575 67.3954 11.0615C67.2274 11.3575 67.1434 11.7135 67.1434 12.1295C67.1434 12.5375 67.2274 12.8935 67.3954 13.1975C67.5634 13.5015 67.7874 13.7335 68.0674 13.8935C68.3554 14.0535 68.6794 14.1335 69.0394 14.1335ZM73.5338 15.3335V6.4295H75.0338V15.3335H73.5338ZM76.6425 15.3335V8.9255H78.1425V15.3335H76.6425ZM77.3985 7.8695C77.1185 7.8695 76.8865 7.7815 76.7025 7.6055C76.5265 7.4295 76.4385 7.2175 76.4385 6.9695C76.4385 6.7135 76.5265 6.5015 76.7025 6.3335C76.8865 6.1575 77.1185 6.0695 77.3985 6.0695C77.6785 6.0695 77.9065 6.1535 78.0825 6.3215C78.2665 6.4815 78.3585 6.6855 78.3585 6.9335C78.3585 7.1975 78.2705 7.4215 78.0945 7.6055C77.9185 7.7815 77.6865 7.8695 77.3985 7.8695ZM82.6313 15.4175C81.9753 15.4175 81.3913 15.2775 80.8793 14.9975C80.3673 14.7095 79.9633 14.3175 79.6673 13.8215C79.3713 13.3255 79.2233 12.7615 79.2233 12.1295C79.2233 11.4895 79.3713 10.9255 79.6673 10.4375C79.9633 9.9415 80.3673 9.5535 80.8793 9.2735C81.3913 8.9935 81.9753 8.8535 82.6313 8.8535C83.2953 8.8535 83.8833 8.9935 84.3953 9.2735C84.9153 9.5535 85.3193 9.9375 85.6073 10.4255C85.9033 10.9135 86.0513 11.4815 86.0513 12.1295C86.0513 12.7615 85.9033 13.3255 85.6073 13.8215C85.3193 14.3175 84.9153 14.7095 84.3953 14.9975C83.8833 15.2775 83.2953 15.4175 82.6313 15.4175ZM82.6313 14.1335C82.9993 14.1335 83.3273 14.0535 83.6153 13.8935C83.9033 13.7335 84.1273 13.5015 84.2873 13.1975C84.4553 12.8935 84.5393 12.5375 84.5393 12.1295C84.5393 11.7135 84.4553 11.3575 84.2873 11.0615C84.1273 10.7575 83.9033 10.5255 83.6153 10.3655C83.3273 10.2055 83.0033 10.1255 82.6433 10.1255C82.2753 10.1255 81.9473 10.2055 81.6593 10.3655C81.3793 10.5255 81.1553 10.7575 80.9873 11.0615C80.8193 11.3575 80.7353 11.7135 80.7353 12.1295C80.7353 12.5375 80.8193 12.8935 80.9873 13.1975C81.1553 13.5015 81.3793 13.7335 81.6593 13.8935C81.9473 14.0535 82.2713 14.1335 82.6313 14.1335Z" fill="#0A0D12"/>
</g>
<defs>
<clipPath id="clip0_25606_120">
<path d="M97.666 10.8335C97.666 5.03451 92.965 0.333496 87.166 0.333496H0.666016V21.3335H87.166C92.965 21.3335 97.666 16.6325 97.666 10.8335Z" fill="white"/>
</clipPath>
</defs>
</svg>
