<svg width="182" height="158" viewBox="0 0 182 158" fill="none" xmlns="http://www.w3.org/2000/svg">
<path opacity="0.1" d="M165.224 55.6718L171.844 132.352C172.373 138.594 168.562 144.07 163.332 144.514L17.8207 156.998C12.6192 157.452 7.91886 152.705 7.41762 146.472L0.79745 69.7822C0.666066 68.3425 0.777956 66.891 1.12845 65.4885C2.16876 61.2043 5.32754 57.9226 9.28073 57.6294L154.792 45.1362C158.736 44.7958 162.358 47.4533 164.164 51.4821C164.746 52.8106 165.104 54.2263 165.224 55.6718Z" fill="black"/>
<path d="M171.741 41.9583L181.255 120.606C182.021 126.999 178.295 132.768 172.961 133.411L23.7329 151.465C18.3989 152.109 13.396 147.399 12.6205 140.996L3.10633 62.3579C2.92531 60.879 2.98921 59.3805 3.29548 57.9224C4.24121 53.4869 7.34323 50.0349 11.4004 49.5431L160.629 31.4985C164.686 31.0067 168.544 33.6074 170.502 37.693C171.147 39.0369 171.566 40.478 171.741 41.9583Z" fill="#B76080"/>
<path opacity="0.1" d="M170.502 37.693L102.816 83.2682C99.5033 85.5325 95.6944 86.9663 91.7109 87.4486C87.7274 87.9309 83.6864 87.4475 79.9291 86.0392L3.32422 57.9224C4.26996 53.4869 7.37199 50.0349 11.4292 49.5431L160.657 31.4985C164.686 31.0067 168.545 33.6074 170.502 37.693Z" fill="#B76080"/>
<path opacity="0.7" d="M145.251 54.6884L125.806 67.7775L119.442 72.0711L102.815 83.2686C99.5885 85.4828 95.8852 86.9055 92.0058 87.4214C88.1265 87.9374 84.1801 87.532 80.4866 86.2383L79.8908 86.0397L70.5658 82.6161L49.5704 74.9083L39.7536 71.305L28.6317 67.2195L27.8278 47.5575L26.0215 3.86441L111.45 0.393555L144.012 25.0679L144.352 33.4566L145.251 54.6884Z" fill="#FAFAFA"/>
<path d="M133.21 33.7595L38.6359 37.5992C38.1084 37.6201 37.5936 37.4339 37.2014 37.0806C36.8092 36.7272 36.5705 36.2346 36.5364 35.7077C36.5181 35.1818 36.7053 34.6694 37.0584 34.2792C37.4115 33.8891 37.9027 33.6518 38.4279 33.6176L133.002 29.7779C133.529 29.7571 134.044 29.9432 134.436 30.2966C134.829 30.65 135.067 31.1426 135.101 31.6694C135.122 32.196 134.936 32.7097 134.582 33.1004C134.228 33.4911 133.736 33.7278 133.21 33.7595Z" fill="white"/>
<path d="M133.714 46.3282L39.1398 50.1679C38.6123 50.1887 38.0975 50.0026 37.7053 49.6493C37.3131 49.2959 37.0744 48.8033 37.0403 48.2764C37.0219 47.7495 37.2088 47.2361 37.5617 46.8444C37.9146 46.4527 38.4058 46.2133 38.9318 46.1769L133.506 42.3372C134.033 42.3188 134.546 42.5057 134.938 42.8586C135.329 43.2115 135.569 43.7027 135.605 44.2287C135.621 44.7549 135.433 45.2671 135.081 45.6583C134.729 46.0494 134.239 46.2894 133.714 46.3282Z" fill="white"/>
<path d="M134.224 58.8879L39.6499 62.7276C39.1224 62.7484 38.6076 62.5623 38.2154 62.209C37.8232 61.8556 37.5845 61.363 37.5504 60.8361C37.5296 60.3096 37.716 59.7959 38.0696 59.4051C38.4232 59.0144 38.9159 58.7778 39.4419 58.746L134.016 54.9063C134.542 54.8856 135.056 55.072 135.447 55.4256C135.837 55.7792 136.074 56.2718 136.106 56.7978C136.127 57.3228 135.942 57.8352 135.59 58.2257C135.238 58.6161 134.748 58.8538 134.224 58.8879Z" fill="white"/>
<path d="M125.807 67.7773L119.442 72.071L49.5707 74.9082L39.7539 71.3049C39.8356 71.2951 39.9181 71.2951 39.9998 71.3049L125.807 67.7773Z" fill="white"/>
<path d="M99.9214 83.429V83.5047C99.9225 84.0193 99.7275 84.515 99.3762 84.891C99.0248 85.2669 98.5434 85.4949 98.0299 85.5286L80.5243 86.2379L79.9285 86.0393L70.6035 82.6157L97.8692 81.4997C98.3948 81.4918 98.9029 81.6887 99.286 82.0488C99.669 82.4089 99.8969 82.9039 99.9214 83.429Z" fill="white"/>
<path d="M144.048 25.0679L122.098 21.3133L111.486 0.393555L144.048 25.0679Z" fill="#B76080"/>
<svg width="172" height="113" viewBox="0 0 172 113" fill="none" xmlns="http://www.w3.org/2000/svg">
<path opacity="0.1" d="M165.224 10.6718L171.844 87.3523C172.373 93.5941 168.562 99.07 163.332 99.5145L17.8207 111.998C12.6192 112.452 7.91886 107.705 7.41762 101.472L0.79745 24.7822C0.666066 23.3425 0.777956 21.891 1.12845 20.4885C2.16876 16.2043 5.32754 12.9226 9.28073 12.6294L154.792 0.136237C158.736 -0.204229 162.358 2.45329 164.164 6.48214C164.746 7.81057 165.104 9.2263 165.224 10.6718Z" fill="#B76080"/>
</svg>

</svg>
