<svg width="19" height="27" viewBox="0 0 19 27" fill="none" xmlns="http://www.w3.org/2000/svg">
<path d="M17.7031 12.1875C17.941 12.1875 18.1708 12.2737 18.3501 12.43C18.5294 12.5864 18.646 12.8023 18.6783 13.038L18.6875 13.1719V13.8281C18.6877 16.0641 17.8424 18.2174 16.3212 19.8562C14.8001 21.495 12.7155 22.4979 10.4857 22.6639L10.4844 25.6406C10.4843 25.89 10.3896 26.1301 10.2193 26.3124C10.049 26.4946 9.81592 26.6054 9.56709 26.6224C9.31827 26.6394 9.07227 26.5613 8.87879 26.4039C8.68532 26.2465 8.55881 26.0216 8.52481 25.7745L8.51562 25.6406V22.6639C6.33886 22.5022 4.29839 21.5427 2.78553 19.9693C1.27266 18.3958 0.393893 16.3193 0.31775 14.1379L0.3125 13.8281V13.1719C0.312576 12.9225 0.407321 12.6824 0.577589 12.5001C0.747857 12.3179 0.980954 12.2071 1.22978 12.1901C1.47861 12.1731 1.72461 12.2512 1.91808 12.4086C2.11155 12.566 2.23807 12.7909 2.27206 13.038L2.28125 13.1719V13.8281C2.2811 15.6066 2.96863 17.3164 4.20004 18.5996C5.43145 19.8829 7.11136 20.6403 8.88838 20.7135L9.17188 20.7188H9.82812C11.6066 20.7189 13.3164 20.0314 14.5996 18.8C15.8829 17.5685 16.6403 15.8886 16.7135 14.1116L16.7188 13.8281V13.1719C16.7188 12.9108 16.8225 12.6604 17.0071 12.4758C17.1917 12.2912 17.4421 12.1875 17.7031 12.1875ZM9.5 0.375C10.8924 0.375 12.2277 0.928123 13.2123 1.91269C14.1969 2.89726 14.75 4.23261 14.75 5.625V13.5C14.75 14.8924 14.1969 16.2277 13.2123 17.2123C12.2277 18.1969 10.8924 18.75 9.5 18.75C8.10761 18.75 6.77225 18.1969 5.78769 17.2123C4.80312 16.2277 4.25 14.8924 4.25 13.5V5.625C4.25 4.23261 4.80312 2.89726 5.78769 1.91269C6.77225 0.928123 8.10761 0.375 9.5 0.375Z" fill="white"/>
</svg>
