<svg width="18" height="21" viewBox="0 0 18 21" fill="none" xmlns="http://www.w3.org/2000/svg">
<path d="M15.2768 4.58637C15.1441 4.51779 15.0149 4.44261 14.8898 4.36112C14.5258 4.12048 14.192 3.83694 13.8958 3.5166C13.1545 2.66841 12.8776 1.80792 12.7756 1.20546H12.7797C12.6945 0.705388 12.7298 0.381836 12.7351 0.381836H9.35867V13.4378C9.35867 13.6131 9.35867 13.7863 9.3513 13.9575C9.3513 13.9788 9.34925 13.9985 9.34802 14.0214C9.34802 14.0308 9.34802 14.0406 9.34597 14.0505C9.34597 14.0529 9.34597 14.0554 9.34597 14.0578C9.31038 14.5263 9.16022 14.9788 8.90869 15.3756C8.65716 15.7724 8.31198 16.1013 7.9035 16.3334C7.47779 16.5756 6.99629 16.7026 6.5065 16.702C4.93338 16.702 3.65842 15.4192 3.65842 13.835C3.65842 12.2509 4.93338 10.9681 6.5065 10.9681C6.80428 10.9679 7.10023 11.0147 7.38336 11.107L7.38746 7.66913C6.52794 7.5581 5.65475 7.62641 4.82295 7.86975C3.99116 8.11308 3.21882 8.52616 2.55466 9.08293C1.9727 9.58857 1.48345 10.1919 1.10891 10.8657C0.966388 11.1115 0.428636 12.0989 0.363516 13.7015C0.32256 14.6112 0.595737 15.5536 0.725976 15.943V15.9512C0.807888 16.1806 1.1253 16.9633 1.64257 17.6231C2.05968 18.1523 2.55248 18.6172 3.10511 19.0029V18.9947L3.1133 19.0029C4.74785 20.1136 6.56015 20.0407 6.56015 20.0407C6.87387 20.028 7.9248 20.0407 9.11826 19.4751C10.442 18.8481 11.1955 17.9138 11.1955 17.9138C11.677 17.3557 12.0598 16.7195 12.3276 16.0327C12.6331 15.2296 12.7351 14.2663 12.7351 13.8813V6.95486C12.776 6.97943 13.3216 7.34025 13.3216 7.34025C13.3216 7.34025 14.1075 7.84401 15.3337 8.17207C16.2135 8.40552 17.3987 8.45466 17.3987 8.45466V5.10283C16.9834 5.14788 16.1402 5.01682 15.2768 4.58637Z" fill="#FDFDFD"/>
</svg>
